<svg width="120" height="120" viewBox="0 0 120 120" fill="none" xmlns="http://www.w3.org/2000/svg">
<path fill-rule="evenodd" clip-rule="evenodd" d="M60 120C84.3005 120 104 100.301 104 76C104 51.6995 84.3005 32 60 32C35.6995 32 16 51.6995 16 76C16 100.301 35.6995 120 60 120Z" fill="black" fill-opacity="0.01"/>
<path fill-rule="evenodd" clip-rule="evenodd" d="M60 120C93.1371 120 120 93.1371 120 60C120 26.8629 93.1371 0 60 0C26.8629 0 0 26.8629 0 60C0 93.1371 26.8629 120 60 120Z" fill="#2196F3"/>
<path fill-rule="evenodd" clip-rule="evenodd" d="M60 112C88.7188 112 112 88.7188 112 60C112 31.2812 88.7188 8 60 8C31.2812 8 8 31.2812 8 60C8 88.7188 31.2812 112 60 112ZM120 60C120 93.1371 93.1371 120 60 120C26.8629 120 0 93.1371 0 60C0 26.8629 26.8629 0 60 0C93.1371 0 120 26.8629 120 60Z" fill="#42A5F5"/>
<mask id="mask0_11_2" style="mask-type:luminance" maskUnits="userSpaceOnUse" x="0" y="0" width="120" height="120">
<path fill-rule="evenodd" clip-rule="evenodd" d="M60 120C93.1371 120 120 93.1371 120 60C120 26.8629 93.1371 0 60 0C26.8629 0 0 26.8629 0 60C0 93.1371 26.8629 120 60 120Z" fill="white"/>
</mask>
<g mask="url(#mask0_11_2)">
<path fill-rule="evenodd" clip-rule="evenodd" d="M1.42786 41.75H117.072V49.75H1.42786V41.75Z" fill="#42A5F5"/>
<path fill-rule="evenodd" clip-rule="evenodd" d="M1.42786 73.25H117.072V81.25H1.42786V73.25Z" fill="#42A5F5"/>
<path fill-rule="evenodd" clip-rule="evenodd" d="M61.5333 11.6074C61.5328 11.6079 61.5324 11.6085 61.5319 11.609L61.5305 11.6106L61.5011 11.6454C61.4723 11.6795 61.4255 11.7355 61.3617 11.8128C61.2342 11.9673 61.0393 12.207 60.7866 12.5277C60.2812 13.1692 59.5459 14.1335 58.6582 15.3875C56.8809 17.8984 54.5039 21.5549 52.139 26.0939C47.3888 35.211 42.8038 47.665 43.0064 61.4412C43.2096 75.2636 47.8055 86.99 52.4148 95.3173C54.714 99.4711 56.9971 102.744 58.6934 104.964C59.5406 106.073 60.2388 106.916 60.7157 107.472C60.954 107.75 61.1368 107.955 61.255 108.086C61.314 108.152 61.3569 108.198 61.3825 108.226L61.406 108.252L61.4077 108.253L61.4077 108.253C62.9239 109.858 62.8528 112.389 61.2484 113.906C59.6434 115.424 57.1117 115.354 55.5937 113.749L58.4999 111C55.5937 113.749 55.5927 113.747 55.5916 113.746L55.589 113.744L55.5825 113.737L55.5644 113.717L55.5079 113.656C55.4613 113.606 55.3971 113.536 55.3165 113.447C55.1552 113.268 54.928 113.012 54.6443 112.681C54.0771 112.02 53.2827 111.06 52.3361 109.821C50.4448 107.345 47.9356 103.745 45.4154 99.1915C40.386 90.1049 35.2354 77.0813 35.0072 61.5588C34.7783 45.9901 39.9399 32.1941 45.0442 22.3974C47.6065 17.4795 50.1836 13.5132 52.1286 10.7655C53.1021 9.3902 53.92 8.31625 54.5026 7.57687C54.7939 7.20707 55.0266 6.92061 55.1907 6.72167C55.2728 6.62218 55.3378 6.54455 55.3844 6.48927L55.4403 6.42319L55.4577 6.40284L55.4637 6.39586L55.466 6.39317C55.467 6.39205 55.4679 6.39101 58.4999 9.00001L55.4679 6.39101C56.9088 4.71648 59.4343 4.52708 61.1089 5.96799C62.7823 7.40795 62.9726 9.93114 61.5347 11.6057C61.5347 11.6058 61.5346 11.6059 61.5345 11.606C61.5344 11.6061 61.5343 11.6062 61.5342 11.6063L61.5333 11.6074C61.5333 11.6074 61.5333 11.6074 61.5333 11.6074Z" fill="#42A5F5"/>
<path fill-rule="evenodd" clip-rule="evenodd" d="M56.9665 11.6074C56.9669 11.6079 56.9674 11.6085 56.9679 11.609L56.9692 11.6106L56.9986 11.6454C57.0274 11.6795 57.0743 11.7355 57.138 11.8128C57.2656 11.9673 57.4605 12.207 57.7131 12.5277C58.2185 13.1692 58.9538 14.1335 59.8415 15.3875C61.6189 17.8984 63.9959 21.5549 66.3608 26.0939C71.111 35.211 75.6959 47.665 75.4934 61.4412C75.2902 75.2636 70.6942 86.99 66.085 95.3173C63.7858 99.4711 61.5026 102.744 59.8064 104.964C58.9592 106.073 58.261 106.916 57.7841 107.472C57.5458 107.75 57.363 107.955 57.2448 108.086C57.1857 108.152 57.1428 108.198 57.1173 108.226L57.0937 108.252L57.0921 108.253L57.092 108.253C55.5758 109.858 55.6469 112.389 57.2514 113.906C58.8564 115.424 61.3881 115.354 62.906 113.749L59.9999 111C62.906 113.749 62.9071 113.747 62.9082 113.746L62.9107 113.744L62.9172 113.737L62.9353 113.717L62.9919 113.656C63.0385 113.606 63.1027 113.536 63.1833 113.447C63.3446 113.268 63.5717 113.012 63.8554 112.681C64.4227 112.02 65.2171 111.06 66.1636 109.821C68.0549 107.345 70.5641 103.745 73.0843 99.1915C78.1138 90.1049 83.2643 77.0813 83.4925 61.5588C83.7214 45.9901 78.5598 32.1941 73.4556 22.3974C70.8933 17.4795 68.3162 13.5132 66.3712 10.7655C65.3977 9.3902 64.5797 8.31625 63.9972 7.57687C63.7059 7.20707 63.4731 6.92061 63.309 6.72167C63.2269 6.62218 63.162 6.54455 63.1154 6.48927L63.0594 6.42319L63.042 6.40284L63.0361 6.39586L63.0337 6.39317C63.0328 6.39205 63.0319 6.39101 59.9999 9.00001L63.0319 6.39101C61.591 4.71648 59.0654 4.52708 57.3909 5.96799C55.7174 7.40795 55.5272 9.93114 56.965 11.6057C56.9651 11.6058 56.9652 11.6059 56.9653 11.606C56.9653 11.6061 56.9654 11.6062 56.9655 11.6063L56.9665 11.6074C56.9665 11.6074 56.9665 11.6074 56.9665 11.6074Z" fill="#42A5F5"/>
</g>
<path fill-rule="evenodd" clip-rule="evenodd" d="M80.3891 38.0556C80.7891 37.8246 81.2301 37.6811 81.6911 37.6521C83.7241 37.5241 89.5959 37.356 90.8693 39.5617C92.1429 41.7675 89.0596 46.7672 87.932 48.4626C87.6765 48.8469 87.332 49.1567 86.9323 49.3875L74.7807 56.4032L76.4684 90.6041C76.492 91.083 76.2499 91.5359 75.8386 91.7823L73.34 93.2787C73.0108 93.4758 72.6114 93.5173 72.2487 93.3921L70.355 92.7381C70.0378 92.6286 69.7754 92.4005 69.6226 92.1017L56.7066 66.8383L43.9686 74.1926L42.5947 83.5357C42.4996 84.1824 41.9387 84.6576 41.2851 84.6452L40.2892 84.6263C39.7855 84.6168 39.3327 84.3167 39.1276 83.8565L35.5481 75.8244C33.0878 75.9029 30.7781 75.6612 30.1584 74.5878C29.5394 73.5156 30.4857 71.4041 31.7859 69.3222L26.6589 62.2603C26.3629 61.8526 26.3294 61.3104 26.573 60.8694L27.0546 59.9974C27.3706 59.4252 28.0627 59.1771 28.6703 59.4181L37.3946 62.8784L50.1557 55.5108L34.8384 31.8533C34.656 31.5716 34.5897 31.2303 34.6535 30.9008L35.0339 28.9338C35.1068 28.5572 35.3425 28.232 35.6778 28.0455L38.223 26.6299C38.642 26.3968 39.1554 26.4136 39.5583 26.6735L68.1536 45.1197L80.3891 38.0556Z" fill="white"/>
<mask id="mask1_11_2" style="mask-type:luminance" maskUnits="userSpaceOnUse" x="26" y="26" width="66" height="68">
<path fill-rule="evenodd" clip-rule="evenodd" d="M80.3891 38.0556C80.7891 37.8246 81.2301 37.6811 81.6911 37.6521C83.7241 37.5241 89.5959 37.356 90.8693 39.5617C92.1429 41.7675 89.0596 46.7672 87.932 48.4626C87.6765 48.8469 87.332 49.1567 86.9323 49.3875L74.7807 56.4032L76.4684 90.6041C76.492 91.083 76.2499 91.5359 75.8386 91.7823L73.34 93.2787C73.0108 93.4758 72.6114 93.5173 72.2487 93.3921L70.355 92.7381C70.0378 92.6286 69.7754 92.4005 69.6226 92.1017L56.7066 66.8383L43.9686 74.1926L42.5947 83.5357C42.4996 84.1824 41.9387 84.6576 41.2851 84.6452L40.2892 84.6263C39.7855 84.6168 39.3327 84.3167 39.1276 83.8565L35.5481 75.8244C33.0878 75.9029 30.7781 75.6612 30.1584 74.5878C29.5394 73.5156 30.4857 71.4041 31.7859 69.3222L26.6589 62.2603C26.3629 61.8526 26.3294 61.3104 26.573 60.8694L27.0546 59.9974C27.3706 59.4252 28.0627 59.1771 28.6703 59.4181L37.3946 62.8784L50.1557 55.5108L34.8384 31.8533C34.656 31.5716 34.5897 31.2303 34.6535 30.9008L35.0339 28.9338C35.1068 28.5572 35.3425 28.232 35.6778 28.0455L38.223 26.6299C38.642 26.3968 39.1554 26.4136 39.5583 26.6735L68.1536 45.1197L80.3891 38.0556Z" fill="white"/>
</mask>
<g mask="url(#mask1_11_2)">
<path d="M69.072 41.5677L70.3806 43.8342L48.8887 56.2425L47.5801 53.9761L69.072 41.5677Z" fill="#EBECF2"/>
<path fill-rule="evenodd" clip-rule="evenodd" d="M75.8386 91.7823C76.2499 91.5359 76.4921 91.0829 76.4685 90.6041L74.7256 55.2852L56.2527 65.9504L69.6227 92.1017C69.7754 92.4005 70.0379 92.6286 70.3551 92.7381L72.2488 93.3921C72.6114 93.5173 73.0109 93.4758 73.34 93.2787L75.8386 91.7823Z" fill="#DEE1E3"/>
<path opacity="0.4" fill-rule="evenodd" clip-rule="evenodd" d="M35.6732 75.6026L35.4952 75.7054L39.1277 83.8565C39.3328 84.3167 39.7855 84.6168 40.2893 84.6263L41.2852 84.6452C41.9388 84.6576 42.4997 84.1824 42.5948 83.5357L44.046 73.6668L43.1202 74.2013C42.8335 74.3669 42.5254 74.4905 42.2023 74.5626C41.102 74.8082 38.3096 75.3902 35.6732 75.6026Z" fill="#DEE1E3"/>
<path fill-rule="evenodd" clip-rule="evenodd" d="M56.4963 66.4269L74.7551 55.8851L74.9536 59.9078L59.9118 73.1075L56.4963 66.4269Z" fill="#C5C6CC"/>
<path fill-rule="evenodd" clip-rule="evenodd" d="M92.9646 45.9049L33.3826 80.3045C33.3826 80.3045 31.6246 77.1271 30.1585 74.5879C30.1408 74.5571 30.124 74.526 30.1082 74.4946C32.8112 74.6901 38.2538 74.4702 43.5322 71.4227L84.7812 47.6076C89.3644 44.9615 90.487 41.5348 91.1053 40.0618C92.0623 42.632 92.9646 45.9049 92.9646 45.9049Z" fill="#DEE1E3"/>
</g>
</svg>
